<?xml version="1.0" standalone="no"?>
<!DOCTYPE svg PUBLIC "-//W3C//DTD SVG 20010904//EN"
 "http://www.w3.org/TR/2001/REC-SVG-20010904/DTD/svg10.dtd">
<svg version="1.0" xmlns="http://www.w3.org/2000/svg"
 width="1036.000000pt" height="1036.000000pt" viewBox="0 0 1036.000000 1036.000000"
 preserveAspectRatio="xMidYMid meet">
<metadata>
Created by potrace 1.14, written by Peter Selinger 2001-2017
</metadata>
<g transform="translate(0.000000,1036.000000) scale(0.100000,-0.100000)"
fill="#000000" stroke="none">
<path d="M4288 10355 c-1 -1 -27 -6 -57 -9 -30 -4 -64 -9 -75 -11 -12 -2 -34
-7 -51 -9 -16 -3 -39 -7 -50 -10 -11 -3 -47 -12 -80 -20 -33 -8 -93 -26 -132
-40 -40 -14 -73 -22 -73 -18 0 4 -4 2 -8 -3 -8 -12 -111 -55 -130 -55 -6 0
-12 -4 -12 -10 0 -6 -3 -9 -7 -8 -8 2 -139 -62 -208 -101 -54 -31 -219 -134
-225 -141 -3 -3 -50 -39 -105 -80 -55 -41 -113 -87 -130 -103 -16 -15 -51 -44
-77 -65 -26 -20 -47 -43 -48 -49 0 -7 -4 -13 -9 -13 -9 0 -100 -91 -141 -140
-118 -143 -130 -158 -130 -165 0 -3 -6 -13 -12 -20 -23 -26 -33 -39 -68 -95
-19 -30 -37 -57 -40 -60 -3 -3 -12 -20 -19 -37 -8 -18 -17 -33 -22 -33 -5 0
-9 -5 -9 -11 0 -6 -9 -24 -21 -40 -11 -16 -17 -29 -12 -29 4 0 3 -4 -3 -8 -10
-6 -167 -321 -193 -387 -5 -11 -14 -33 -22 -50 -7 -16 -13 -32 -14 -35 -1 -3
-9 -22 -18 -44 -9 -21 -17 -41 -17 -45 -1 -3 -9 -24 -20 -46 -11 -22 -19 -48
-20 -57 0 -10 -5 -18 -10 -18 -6 0 -9 -3 -8 -7 2 -7 -21 -75 -42 -128 -5 -11
-23 -58 -40 -105 -18 -47 -36 -94 -41 -105 -5 -11 -18 -45 -28 -75 -11 -30
-34 -93 -51 -140 -18 -47 -33 -92 -35 -100 -2 -8 -4 -15 -5 -15 -1 0 -3 -7 -5
-15 -1 -8 -8 -35 -15 -60 -7 -25 -14 -52 -15 -60 -2 -8 -4 -15 -5 -15 -1 0 -4
-10 -13 -50 -3 -11 -8 -31 -11 -45 -7 -30 -14 -71 -22 -124 -6 -40 -23 -66
-43 -66 -6 0 -11 -4 -11 -8 0 -4 -12 -15 -27 -24 -16 -9 -40 -28 -55 -42 -15
-14 -29 -26 -32 -26 -10 0 -172 -157 -221 -215 -22 -26 -47 -54 -55 -64 -33
-37 -100 -131 -100 -140 0 -5 -4 -11 -9 -13 -13 -5 -92 -152 -139 -258 -24
-57 -72 -209 -77 -249 -2 -17 -6 -34 -9 -39 -20 -32 -28 -363 -13 -492 5 -36
10 -87 13 -115 7 -80 13 -133 18 -157 3 -13 8 -45 12 -73 11 -90 14 -105 19
-133 3 -15 8 -40 10 -57 3 -16 7 -41 10 -55 3 -14 8 -41 11 -60 4 -19 9 -44
11 -55 3 -11 9 -38 13 -60 12 -60 17 -80 46 -195 14 -58 28 -114 30 -124 2
-10 8 -33 14 -51 6 -18 13 -43 16 -56 6 -28 7 -31 23 -89 7 -25 17 -54 21 -65
5 -11 12 -33 16 -50 9 -39 10 -40 34 -110 12 -33 23 -64 24 -70 2 -5 6 -17 9
-25 48 -130 87 -240 87 -249 0 -6 5 -11 11 -11 5 0 8 -4 5 -8 -2 -4 1 -21 9
-37 7 -17 44 -102 81 -190 77 -181 241 -518 255 -523 5 -2 9 -10 9 -17 0 -7
27 -61 60 -119 33 -58 60 -110 60 -116 0 -5 4 -10 8 -10 5 0 15 -15 24 -33 9
-17 53 -90 98 -162 45 -71 88 -139 94 -150 6 -11 14 -22 17 -25 3 -3 30 -41
59 -85 29 -44 57 -81 62 -83 4 -2 8 -8 8 -13 0 -9 75 -115 90 -129 3 -3 17
-21 30 -40 13 -19 29 -40 35 -47 14 -17 24 -30 80 -103 28 -35 59 -74 70 -85
11 -12 34 -38 50 -59 137 -173 463 -514 670 -701 49 -44 98 -89 110 -100 12
-11 42 -37 68 -58 26 -21 52 -43 59 -50 7 -7 29 -24 50 -39 20 -15 42 -34 50
-41 7 -7 54 -44 103 -82 50 -38 92 -73 93 -77 2 -4 8 -8 13 -8 6 0 15 -4 22
-10 57 -46 76 -60 85 -60 6 0 12 -4 14 -9 4 -11 262 -184 386 -259 124 -76
176 -105 325 -186 l67 -37 1 73 c2 127 13 303 24 388 2 19 9 75 16 124 6 49
12 99 14 110 2 12 6 41 9 66 8 50 14 60 25 41 5 -7 31 -38 58 -69 28 -31 83
-95 122 -142 139 -163 228 -267 263 -305 14 -16 36 -41 48 -55 11 -14 38 -45
60 -70 90 -105 89 -104 61 -47 -8 15 -18 27 -23 27 -4 0 -8 4 -8 9 0 9 -58
109 -70 121 -3 3 -12 19 -20 35 -8 17 -17 32 -20 35 -7 7 -29 42 -40 65 -5 11
-29 52 -54 90 -25 39 -55 89 -67 113 -13 23 -26 42 -31 42 -4 0 -8 5 -8 11 0
13 -91 163 -102 167 -5 2 -8 8 -8 13 0 5 -12 28 -27 52 -15 23 -28 44 -28 47
0 3 -12 23 -26 45 -48 75 -49 76 -32 150 8 39 16 80 19 91 2 12 27 111 55 220
28 110 52 204 53 209 2 6 8 30 15 55 7 25 15 52 16 60 2 8 17 60 34 115 16 54
27 103 25 107 -3 4 0 8 6 8 6 0 9 3 7 8 -3 4 0 18 6 32 5 14 11 32 12 40 2 8
14 53 28 100 66 226 149 520 186 660 23 85 45 169 50 185 10 31 23 88 26 115
1 8 5 22 8 30 5 14 40 170 51 230 3 14 7 35 10 46 2 12 7 37 10 55 3 19 8 44
10 55 5 23 16 86 20 119 2 11 7 40 10 65 4 25 9 56 11 70 2 14 6 50 10 80 3
30 8 71 10 90 24 186 24 688 0 840 -4 29 -16 121 -21 165 -1 17 -4 30 -4 30
-1 0 -4 14 -5 30 -2 17 -6 41 -10 55 -3 14 -8 37 -10 52 -6 44 -34 168 -55
253 -23 90 -21 81 -43 155 -9 30 -16 58 -17 62 0 7 -19 61 -40 113 -4 11 -20
54 -35 95 -58 158 -164 378 -265 549 -54 91 -182 271 -281 396 -34 42 -299
307 -299 298 0 -4 -6 0 -12 9 -17 21 -228 180 -265 198 -15 8 -30 17 -33 20
-16 18 -239 136 -310 165 -169 67 -331 113 -462 130 -21 3 -55 7 -75 10 -30 5
-188 12 -310 15 -12 0 -1 31 60 160 17 36 31 67 31 70 3 14 198 395 233 455
23 39 40 72 39 75 0 3 5 12 12 20 17 20 62 90 62 96 0 3 25 38 55 79 52 70
132 155 207 218 46 39 51 43 79 57 13 7 26 16 29 19 12 14 261 131 320 150
141 45 245 68 277 61 20 -5 56 -30 94 -66 163 -157 213 -211 267 -282 31 -42
62 -83 69 -90 7 -7 20 -26 30 -42 9 -17 21 -30 25 -30 4 0 8 -6 8 -13 0 -7 8
-22 18 -33 9 -11 22 -29 29 -40 56 -91 100 -162 109 -179 58 -106 117 -223
139 -276 14 -35 30 -73 35 -84 11 -27 18 -49 16 -56 0 -4 6 -15 15 -25 8 -11
24 -39 34 -64 23 -54 87 -164 97 -168 5 -2 8 -8 8 -13 0 -12 68 -99 120 -154
111 -118 242 -196 385 -231 135 -32 365 -21 464 22 146 65 281 145 346 207 7
6 27 23 45 37 18 14 38 31 46 38 8 7 14 10 14 5 0 -4 4 -2 8 5 5 7 22 23 39
35 48 35 237 180 243 186 3 3 13 11 22 16 21 12 86 57 154 106 28 21 66 46 85
56 19 10 52 30 74 44 77 49 242 121 306 133 8 1 33 8 56 15 58 16 114 20 143
9 24 -9 47 -16 79 -22 20 -4 106 -77 118 -101 6 -11 20 -38 31 -60 19 -36 29
-60 38 -90 2 -5 11 -30 20 -55 9 -25 20 -58 25 -75 4 -16 15 -57 24 -90 10
-33 18 -64 20 -70 1 -5 5 -17 8 -25 7 -19 57 -235 63 -275 6 -35 11 -62 17
-90 29 -126 39 -263 40 -515 0 -193 -4 -271 -17 -365 -3 -16 -8 -52 -12 -80
-3 -27 -8 -57 -9 -67 -2 -9 -7 -38 -11 -65 -5 -26 -8 -50 -9 -53 -1 -3 -4 -18
-8 -35 -4 -16 -9 -43 -12 -60 -7 -38 -58 -253 -79 -327 -8 -31 -17 -67 -20
-80 -2 -12 -14 -54 -26 -93 -11 -38 -32 -108 -46 -155 -14 -47 -30 -94 -34
-105 -5 -11 -25 -69 -45 -130 -20 -60 -42 -123 -49 -140 -8 -16 -25 -61 -39
-100 -28 -77 -106 -272 -142 -350 -7 -16 -25 -57 -40 -90 -70 -161 -277 -579
-360 -730 -15 -27 -43 -79 -62 -115 -20 -36 -44 -77 -55 -92 -11 -16 -17 -28
-13 -28 3 0 -6 -17 -20 -37 -14 -21 -25 -43 -25 -50 0 -7 -4 -13 -8 -13 -4 0
-13 -12 -20 -28 -14 -31 -156 -271 -172 -289 -5 -7 -10 -15 -10 -18 0 -3 -12
-24 -27 -48 -38 -61 -64 -102 -116 -187 -26 -41 -51 -80 -57 -87 -5 -7 -10
-15 -10 -17 0 -7 -39 -68 -271 -429 -63 -98 -118 -185 -124 -194 -28 -46 -136
-210 -145 -220 -5 -7 -10 -14 -10 -17 0 -6 -215 -336 -229 -353 -6 -7 -11 -15
-11 -18 0 -3 -9 -18 -19 -33 -53 -75 -171 -263 -171 -272 0 -5 -4 -10 -9 -10
-5 0 -14 -13 -21 -30 -7 -16 -16 -30 -21 -30 -5 0 -9 -5 -9 -11 0 -5 -52 -87
-115 -181 -63 -94 -115 -174 -115 -178 0 -5 -4 -10 -8 -12 -5 -2 -46 -57 -92
-123 -45 -66 -88 -127 -94 -135 -18 -24 22 7 72 57 23 24 44 43 46 43 11 0
580 579 766 779 52 56 113 121 135 145 33 35 111 121 231 253 12 12 52 57 90
99 37 42 80 89 94 104 14 15 57 63 95 106 39 43 81 89 94 103 12 14 51 57 85
95 33 38 70 80 81 92 11 12 38 43 60 69 22 26 47 54 56 63 8 10 46 53 84 97
38 44 74 85 80 91 9 10 43 51 104 124 11 14 26 32 34 40 7 8 33 40 57 70 25
30 47 57 50 60 6 5 40 48 80 100 14 18 34 42 45 54 11 11 31 37 45 56 13 19
27 37 30 40 3 3 28 34 55 70 27 36 53 67 57 68 4 2 8 8 8 14 0 5 6 15 13 22 6
7 20 24 30 37 145 199 183 251 224 312 26 40 51 74 56 75 4 2 7 8 7 12 0 5 24
44 53 87 28 43 67 103 86 133 19 30 44 71 56 90 20 32 45 73 119 200 15 25 34
61 42 80 9 19 19 37 23 40 4 3 24 39 45 80 20 41 42 82 47 90 9 16 152 311
154 320 1 3 18 40 38 83 20 43 37 80 37 82 0 2 16 38 35 79 19 42 35 79 35 82
0 3 11 29 24 57 13 29 31 73 39 97 9 25 24 63 33 85 10 22 19 45 20 50 0 6 6
21 11 35 13 31 84 240 88 260 2 8 4 16 5 18 3 2 4 6 14 47 4 17 9 35 11 40 1
6 3 13 4 17 1 4 8 26 16 48 8 22 12 40 9 40 -2 0 0 8 5 18 5 9 12 34 15 56 4
21 8 42 11 46 2 3 7 21 10 38 3 18 12 64 20 103 8 38 17 87 20 107 3 20 7 46
9 57 31 183 41 332 40 620 0 213 -6 355 -19 450 -2 17 -7 57 -10 90 -6 64 -10
85 -19 125 -3 14 -8 41 -11 60 -6 42 -22 135 -29 170 -3 14 -11 50 -17 80 -6
30 -15 69 -20 85 -12 41 -60 217 -64 235 -12 55 -88 227 -139 315 -20 33 -39
67 -43 75 -4 8 -11 20 -15 25 -4 6 -27 35 -50 65 -64 83 -69 88 -134 154 -104
104 -192 171 -323 245 -145 81 -360 157 -501 176 -25 3 -58 9 -75 11 -125 22
-391 19 -540 -7 -95 -16 -97 -16 -165 -34 -36 -9 -73 -19 -83 -20 -9 -2 -22
-7 -27 -10 -6 -4 -22 -9 -37 -11 -15 -3 -32 -9 -38 -13 -5 -5 -26 -12 -45 -16
-19 -4 -41 -11 -50 -16 -8 -4 -73 -35 -145 -69 -71 -34 -131 -66 -133 -71 -2
-5 -8 -9 -13 -9 -15 0 -254 -151 -357 -225 -50 -36 -95 -65 -99 -65 -4 0 -24
30 -43 68 -18 37 -39 70 -45 74 -6 5 -6 8 0 8 7 0 7 3 0 8 -5 4 -21 27 -34 52
-27 52 -133 223 -142 230 -3 3 -12 16 -19 30 -24 46 -175 242 -263 343 -162
184 -384 378 -538 472 -18 11 -47 28 -64 39 -34 21 -212 114 -223 117 -4 1
-18 6 -32 11 -76 30 -162 58 -196 63 -42 6 -390 15 -396 10z"/>
</g>
</svg>
